<?xml version="1.0" encoding="utf-8"?>
<!-- Generator: Adobe Illustrator 22.1.0, SVG Export Plug-In . SVG Version: 6.00 Build 0)  -->
<svg version="1.1" id="Layer_1" xmlns="http://www.w3.org/2000/svg" xmlns:xlink="http://www.w3.org/1999/xlink" x="0px" y="0px"
	 viewBox="0 0 544.4 165.4" style="enable-background:new 0 0 544.4 165.4;" xml:space="preserve">
<style type="text/css">
	.st0{fill:#FFFFFF;}
	.st1{fill:#EB6D24;}
</style>
<g>
	<path class="st0" d="M288,125l-3-50.1c-0.5-7.9-0.9-14.3-0.9-25h-0.2c-1.4,10.5-2.3,16.8-4.3,23.4L264.5,125h-27.1l-13.2-50.3
		c-1.8-7-3.2-13.9-4.1-25h-0.2c0,11.1,0,17.8-0.5,25.7l-2.5,49.6h-32.1L196.8,0.7h39.1L248,49.9c1.8,7,3,13.6,4.1,23.6h0.2
		c1.1-9.5,2.5-15.5,4.8-25.3l12.7-47.5h37.8L319.1,125H288z"/>
	<path class="st0" d="M407.3,125l-6.4-23.9h-29.4l-6.8,23.9h-33.5l40-124.4h33.2L441.9,125H407.3z M389.1,53.8
		c-1.2-5.5-2.1-12.9-2.3-17.5c-0.4,4.6-1.2,11.4-3.4,19.8l-5,20.3h16.1L389.1,53.8z"/>
	<path class="st0" d="M498.7,125.4c-20.7,0-35-6.4-45.5-20.7c-8.4-11.5-11.8-23.1-11.8-39.6c0-25.9,10.5-48.1,31.2-58.5
		c9.3-4.7,17.1-6.3,28.4-6.3c16.2,0,31.4,5.2,43.4,15.3L526.8,35c-6.6-6.2-15.9-9.4-25.3-9.4c-16.8,0-23.6,11.3-23.6,38.4
		c0,24.1,7.3,35.9,22.1,35.9c4.1,0,8.2-0.3,11.6-1.7V79.1h-15.2l-3.6-24.7h50.7v59C529.3,122,514.8,125.4,498.7,125.4"/>
	<polygon class="st0" points="185.1,143 187.6,143 187.6,160.4 196,160.4 196,162.5 185.1,162.5 	"/>
	<path class="st0" d="M207.5,156.4l-2,6.2h-2.6l6.6-19.6h3l6.7,19.6h-2.7l-2.1-6.2H207.5z M213.9,154.4l-1.9-5.6
		c-0.4-1.3-0.7-2.4-1-3.6h-0.1c-0.3,1.1-0.6,2.3-1,3.5l-1.9,5.7H213.9z"/>
	<path class="st0" d="M229.4,143v11.6c0,4.4,1.9,6.2,4.6,6.2c2.9,0,4.8-1.9,4.8-6.2V143h2.6v11.4c0,6-3.2,8.4-7.4,8.4
		c-4,0-7-2.3-7-8.4V143H229.4z"/>
	<path class="st0" d="M251.1,162.5V143h2.8l6.2,9.9c1.4,2.3,2.6,4.3,3.5,6.4l0.1,0c-0.2-2.6-0.3-5-0.3-8V143h2.4v19.6h-2.6l-6.2-9.9
		c-1.4-2.2-2.7-4.4-3.6-6.5l-0.1,0c0.1,2.5,0.2,4.8,0.2,8.1v8.4H251.1z"/>
	<path class="st0" d="M275.7,143.2c1.6-0.2,3.4-0.4,5.4-0.4c3.6,0,6.2,0.8,7.9,2.4c1.8,1.6,2.8,3.9,2.8,7.1c0,3.2-1,5.8-2.8,7.6
		c-1.9,1.8-4.9,2.8-8.7,2.8c-1.8,0-3.3-0.1-4.6-0.2V143.2z M278.3,160.6c0.6,0.1,1.6,0.1,2.6,0.1c5.4,0,8.3-3,8.3-8.3
		c0-4.7-2.6-7.5-7.9-7.5c-1.3,0-2.3,0.1-3,0.3V160.6z"/>
	<path class="st0" d="M300.6,143.3c1.3-0.3,3.1-0.4,4.8-0.4c2.7,0,4.5,0.5,5.7,1.6c1,0.8,1.5,2.2,1.5,3.7c0,2.6-1.7,4.3-3.7,5v0.1
		c1.5,0.5,2.4,1.9,2.9,3.9c0.6,2.7,1.1,4.6,1.5,5.4h-2.6c-0.3-0.6-0.8-2.2-1.3-4.7c-0.6-2.7-1.7-3.7-3.9-3.8h-2.4v8.5h-2.5V143.3z
		 M303.1,152.1h2.6c2.7,0,4.4-1.5,4.4-3.7c0-2.5-1.8-3.6-4.5-3.6c-1.2,0-2.1,0.1-2.5,0.2V152.1z"/>
	<path class="st0" d="M325.7,162.5v-8.3l-6.2-11.3h2.9l2.8,5.4c0.7,1.5,1.3,2.7,2,4h0.1c0.5-1.3,1.2-2.6,2-4l2.8-5.4h2.8l-6.5,11.2
		v8.3H325.7z"/>
	<polygon class="st0" points="364.4,153.4 356.8,153.4 356.8,160.4 365.3,160.4 365.3,162.5 354.2,162.5 354.2,143 364.8,143 
		364.8,145.1 356.8,145.1 356.8,151.3 364.4,151.3 	"/>
	<path class="st0" d="M390.2,165.4c-2.6-0.7-5.2-1.5-7.5-2.3c-0.4-0.1-0.8-0.3-1.2-0.3c-4.7-0.2-8.6-3.6-8.6-9.9
		c0-6.3,3.8-10.3,9.1-10.3c5.3,0,8.8,4.1,8.8,9.9c0,5-2.3,8.2-5.6,9.4v0.1c1.9,0.5,4.1,1,5.7,1.2L390.2,165.4z M381.8,160.8
		c4,0,6.3-3.7,6.3-8.1c0-3.9-2-8-6.2-8c-4.3,0-6.4,3.9-6.4,8.2C375.6,157.1,377.8,160.8,381.8,160.8L381.8,160.8z"/>
	<path class="st0" d="M402.1,143v11.6c0,4.4,1.9,6.2,4.6,6.2c2.9,0,4.8-1.9,4.8-6.2V143h2.6v11.4c0,6-3.2,8.4-7.4,8.4
		c-4,0-7-2.3-7-8.4V143H402.1z"/>
	<rect x="423.8" y="143" class="st0" width="2.6" height="19.6"/>
	<path class="st0" d="M436.3,143.2c1.2-0.2,2.8-0.4,4.9-0.4c2.5,0,4.3,0.6,5.5,1.6c1.1,0.9,1.7,2.3,1.7,4.1c0,1.8-0.5,3.2-1.5,4.2
		c-1.3,1.4-3.5,2.1-6,2.1c-0.8,0-1.5,0-2-0.2v7.8h-2.5V143.2z M438.8,152.6c0.5,0.1,1.3,0.2,2.1,0.2c3.1,0,4.9-1.5,4.9-4.2
		c0-2.6-1.8-3.9-4.6-3.9c-1.1,0-1.9,0.1-2.4,0.2V152.6z"/>
	<path class="st0" d="M473.7,153.9c-0.1-2.7-0.3-6-0.3-8.4h-0.1c-0.7,2.3-1.5,4.7-2.5,7.4l-3.5,9.5h-1.9l-3.2-9.3
		c-0.9-2.8-1.7-5.3-2.2-7.6h-0.1c-0.1,2.4-0.2,5.7-0.4,8.7l-0.5,8.4h-2.4l1.4-19.6h3.2l3.3,9.5c0.8,2.4,1.5,4.6,2,6.6h0.1
		c0.5-2,1.2-4.1,2.1-6.6l3.5-9.5h3.2l1.2,19.6h-2.5L473.7,153.9z"/>
	<polygon class="st0" points="496.2,153.4 488.6,153.4 488.6,160.4 497.1,160.4 497.1,162.5 486.1,162.5 486.1,143 496.7,143 
		496.7,145.1 488.6,145.1 488.6,151.3 496.2,151.3 	"/>
	<path class="st0" d="M505.9,162.5V143h2.8l6.2,9.9c1.4,2.3,2.6,4.3,3.5,6.4l0.1,0c-0.2-2.6-0.3-5-0.3-8V143h2.4v19.6H518l-6.2-9.9
		c-1.4-2.2-2.7-4.4-3.6-6.5l-0.1,0c0.1,2.5,0.2,4.8,0.2,8.1v8.4H505.9z"/>
	<polygon class="st0" points="534.2,145.1 528.3,145.1 528.3,143 542.8,143 542.8,145.1 536.8,145.1 536.8,162.5 534.2,162.5 	"/>
	<path class="st0" d="M97,74c0,0-12.9,1.6-12.7-8.1C84.5,56.2,100,59,100,59s70.1,0.9,71.4,69.4c0,0-0.5,28.5-27.7,28.5
		c0,0-13-1.2-24-16.2c0,0-3.5-3.2,0.7-7.7c4.2-4.6,8.5-2.5,9.9,0.2c1.4,2.6,21.5,35.9,36.6,6.9c0,0,11.1-26.3-17.4-51.1
		C149.5,89,132.8,71.9,97,74"/>
	<path class="st1" d="M75.2,106.1c0,0,10,10.7,1.9,16.4c-8,5.7-16.2-10-16.2-10S14.4,48.4,69.6,5.6c0,0,23.7-16.9,42,7.7
		c0,0,7.8,12.6,2.9,31.6c0,0-0.2,5.1-6.8,4.1c-6.6-1.1-7.7-6.2-6.5-9.1c1.2-2.9,14.9-41.3-19.1-37.4c0,0-28.9,5.9-30,46.9
		C52,49.4,49.3,75,75.2,106.1"/>
	<path class="st0" d="M100.3,114.3c0,0,5.3-12.3,13.6-7.3c8.3,5-2.3,17.5-2.3,17.5s-37.3,62.4-97.1,29.1c0,0-24.3-14.8-10.2-39.1
		c0,0,7.9-11.1,26.5-13.3c0,0,4.6-1.6,6.3,4.5c1.7,6.1-2.3,8.8-5.3,8.7c-3-0.1-42.2,1.2-25,29.4c0,0,16.8,23.1,53.1,10
		C60,153.8,83.5,147.4,100.3,114.3"/>
</g>
</svg>
