<?xml version="1.0" encoding="utf-8"?>
<!-- Generator: Adobe Illustrator 22.1.0, SVG Export Plug-In . SVG Version: 6.00 Build 0)  -->
<svg version="1.1" id="Layer_1" xmlns="http://www.w3.org/2000/svg" xmlns:xlink="http://www.w3.org/1999/xlink" x="0px" y="0px"
	 viewBox="0 0 171.4 163.3" style="enable-background:new 0 0 171.4 163.3;" xml:space="preserve">
<style type="text/css">
	.st0{fill:#FFFFFF;}
	.st1{fill:#EA6D24;}
</style>
<g>
	<path class="st0" d="M97,74c0,0-12.9,1.6-12.7-8.1C84.5,56.2,100,59,100,59s70.1,0.9,71.4,69.4c0,0-0.5,28.5-27.7,28.5
		c0,0-13-1.2-24-16.2c0,0-3.5-3.2,0.7-7.7c4.2-4.6,8.5-2.5,9.9,0.2c1.4,2.6,21.5,35.9,36.6,6.9c0,0,11.1-26.3-17.4-51.1
		C149.5,89,132.8,71.9,97,74"/>
	<path class="st1" d="M75.2,106.1c0,0,10,10.7,1.9,16.4c-8,5.7-16.2-10-16.2-10S14.4,48.4,69.6,5.6c0,0,23.7-16.9,42,7.7
		c0,0,7.8,12.6,2.9,31.6c0,0-0.2,5.1-6.8,4.1c-6.6-1.1-7.7-6.2-6.5-9.1c1.2-2.9,14.9-41.3-19.1-37.4c0,0-28.9,5.9-30,46.9
		C52,49.4,49.3,75,75.2,106.1"/>
	<path class="st0" d="M100.3,114.3c0,0,5.3-12.3,13.6-7.3c8.3,5-2.3,17.5-2.3,17.5s-37.3,62.4-97.1,29.1c0,0-24.3-14.8-10.2-39.1
		c0,0,7.9-11.1,26.5-13.3c0,0,4.6-1.6,6.3,4.5c1.7,6.1-2.3,8.8-5.3,8.7c-3-0.1-42.2,1.2-25,29.4c0,0,16.8,23.1,53.1,10
		C60,153.8,83.5,147.4,100.3,114.3"/>
</g>
</svg>
